<?xml version="1.0" encoding="UTF-8" standalone="no"?>
<!-- Created with Inkscape (http://www.inkscape.org/) -->

<svg
   xmlns:dc="http://purl.org/dc/elements/1.1/"
   xmlns:cc="http://creativecommons.org/ns#"
   xmlns:rdf="http://www.w3.org/1999/02/22-rdf-syntax-ns#"
   xmlns:svg="http://www.w3.org/2000/svg"
   xmlns="http://www.w3.org/2000/svg"
   xmlns:sodipodi="http://sodipodi.sourceforge.net/DTD/sodipodi-0.dtd"
   xmlns:inkscape="http://www.inkscape.org/namespaces/inkscape"
   width="28.222221mm"
   height="28.222221mm"
   viewBox="0 0 99.999997 99.999997"
   id="svg2"
   version="1.1"
   inkscape:version="0.91 r13725"
   sodipodi:docname="add_circle_white.svg">
  <defs
     id="defs4" />
  <sodipodi:namedview
     id="base"
     pagecolor="#ffffff"
     bordercolor="#666666"
     borderopacity="1.0"
     inkscape:pageopacity="0.0"
     inkscape:pageshadow="2"
     inkscape:zoom="0.98994949"
     inkscape:cx="169.93974"
     inkscape:cy="31.477625"
     inkscape:document-units="px"
     inkscape:current-layer="layer1"
     showgrid="false"
     fit-margin-top="0"
     fit-margin-left="0"
     fit-margin-right="0"
     fit-margin-bottom="0"
     inkscape:window-width="1920"
     inkscape:window-height="1018"
     inkscape:window-x="1672"
     inkscape:window-y="-8"
     inkscape:window-maximized="1" />
  <metadata
     id="metadata7">
    <rdf:RDF>
      <cc:Work
         rdf:about="">
        <dc:format>image/svg+xml</dc:format>
        <dc:type
           rdf:resource="http://purl.org/dc/dcmitype/StillImage" />
        <dc:title></dc:title>
      </cc:Work>
    </rdf:RDF>
  </metadata>
  <g
     inkscape:label="Layer 1"
     inkscape:groupmode="layer"
     id="layer1"
     transform="translate(-266.96255,-333.10896)">
    <g
       style="font-style:normal;font-weight:normal;font-size:64.42732239px;line-height:125%;font-family:Sans;letter-spacing:0px;word-spacing:0px;fill:#ffffff;fill-opacity:1;stroke:none;stroke-width:1px;stroke-linecap:butt;stroke-linejoin:miter;stroke-opacity:1"
       id="text4167-6"
       transform="matrix(1.9433211,0,0,1.9433211,-501.62963,-366.35522)">
      <path
         d="m 437.34045,384.51104 0,2.30097 c 0,0.33556 -0.10786,0.6112 -0.32358,0.82692 -0.21571,0.21571 -0.49135,0.32357 -0.82691,0.32357 l -12.65537,0 0,12.65537 c 0,0.33556 -0.10786,0.6112 -0.32357,0.82691 -0.21572,0.21572 -0.49136,0.32358 -0.82692,0.32358 l -2.30097,0 c -0.33556,0 -0.6112,-0.10786 -0.82692,-0.32358 -0.21571,-0.21571 -0.32357,-0.49135 -0.32357,-0.82691 l 0,-12.65537 -12.65537,0 c -0.33556,0 -0.6112,-0.10786 -0.82691,-0.32357 -0.21571,-0.21572 -0.32357,-0.49136 -0.32357,-0.82692 l 0,-2.30097 c 0,-0.33556 0.10786,-0.6112 0.32357,-0.82692 0.21571,-0.21571 0.49135,-0.32357 0.82691,-0.32357 l 12.65537,0 0,-12.65537 c 0,-0.33556 0.10786,-0.6112 0.32357,-0.82691 0.21572,-0.21571 0.49136,-0.32357 0.82692,-0.32357 l 2.30097,0 c 0.33556,0 0.6112,0.10786 0.82692,0.32357 0.21571,0.21571 0.32357,0.49135 0.32357,0.82691 l 0,12.65537 12.65537,0 c 0.33556,0 0.6112,0.10786 0.82691,0.32357 0.21572,0.21572 0.32358,0.49136 0.32358,0.82692 z"
         id="path4190"
         inkscape:connector-curvature="0"
         sodipodi:nodetypes="sssscsssssscscsscscscsscscsss"
         style="fill:#ffffff;fill-opacity:1" />
    </g>
    <g
       transform="matrix(1.9433211,0,0,1.9433211,-213.49415,-369.0208)"
       style="font-style:normal;font-weight:normal;font-size:60.03469086px;line-height:125%;font-family:Sans;letter-spacing:0px;word-spacing:0px;fill:#ffffff;fill-opacity:1;stroke:none;stroke-width:1px;stroke-linecap:butt;stroke-linejoin:miter;stroke-opacity:1"
       id="text4157-7">
      <path
         inkscape:connector-curvature="0"
         d="m 281.27237,367.30081 q -3.95317,-1.70858 -8.30837,-1.70858 -4.35519,0 -8.34187,1.70858 -3.95318,1.70857 -6.83431,4.5897 -2.84763,2.84763 -4.5562,6.83431 -1.70858,3.95318 -1.70858,8.30837 0,4.3552 1.70858,8.34187 1.70857,3.95318 4.5562,6.83431 2.88113,2.84763 6.83431,4.55621 3.98668,1.70857 8.34187,1.70857 4.3552,0 8.30837,-1.70857 3.98668,-1.70858 6.83431,-4.55621 2.88113,-2.88113 4.58971,-6.83431 1.70857,-3.98667 1.70857,-8.34187 0,-4.35519 -1.70857,-8.30837 -1.70858,-3.98668 -4.58971,-6.83431 -2.84763,-2.88113 -6.83431,-4.5897 z m 13.97013,6.8343 q 3.45065,5.89627 3.45065,12.89808 0,7.00181 -3.45065,12.93158 -3.45065,5.89626 -9.38042,9.34692 -5.89626,3.45065 -12.89808,3.45065 -7.00181,0 -12.93158,-3.45065 -5.89626,-3.45066 -9.34692,-9.34692 -3.45065,-5.92977 -3.45065,-12.93158 0,-7.00181 3.45065,-12.89808 3.45066,-5.92976 9.34692,-9.38042 5.92977,-3.45065 12.93158,-3.45065 7.00182,0 12.89808,3.45065 5.92977,3.45066 9.38042,9.38042 z"
         id="path4193-8"
         style="fill:#ffffff;fill-opacity:1" />
    </g>
  </g>
</svg>
