<?xml version="1.0" encoding="UTF-8" standalone="no"?>
<svg
   xmlns:dc="http://purl.org/dc/elements/1.1/"
   xmlns:cc="http://creativecommons.org/ns#"
   xmlns:rdf="http://www.w3.org/1999/02/22-rdf-syntax-ns#"
   xmlns:svg="http://www.w3.org/2000/svg"
   xmlns="http://www.w3.org/2000/svg"
   version="1.1"
   id="svg_add_circle_plain"
   viewBox="0 0 100 100"
   height="28.222221mm"
   width="28.222221mm">
  <title
     id="title4137">Add Icon</title>
  <defs
     id="defs4" />
  <metadata
     id="metadata7">
    <rdf:RDF>
      <cc:Work
         rdf:about="">
        <dc:format>image/svg+xml</dc:format>
        <dc:type
           rdf:resource="http://purl.org/dc/dcmitype/StillImage" />
        <dc:title>Add Icon</dc:title>
        <dc:date>21/07/2015</dc:date>
        <dc:creator>
          <cc:Agent>
            <dc:title>James Jenner</dc:title>
          </cc:Agent>
        </dc:creator>
        <dc:source>Derived from icons in the fontawsome library (refer http://fontawesome.io/icons/)</dc:source>
        <dc:subject>
          <rdf:Bag>
            <rdf:li>Add; Plus</rdf:li>
          </rdf:Bag>
        </dc:subject>
        <dc:description>Add icon with class tags so can be modified via javascript/css</dc:description>
        <dc:rights>
          <cc:Agent>
            <dc:title>AS per the fontawesome licensing, effectivly the MIT license (refer http://opensource.org/licenses/mit-license.html)</dc:title>
          </cc:Agent>
        </dc:rights>
      </cc:Work>
    </rdf:RDF>
  </metadata>
  <g
    transform="translate(-266.96255,-333.10896)"
    id="svg_add_circle_plain_group">
    <g
      transform="matrix(1.9433211,0,0,1.9433211,-501.62963,-366.35522)"
      id="svg_add_circle_plain_plus_group"
      style="font-style:normal;font-weight:normal;font-size:64.42732239px;line-height:125%;font-family:Sans;letter-spacing:0px;word-spacing:0px;stroke:none;stroke-width:1px;stroke-linecap:butt;stroke-linejoin:miter;stroke-opacity:1">
      <path
        id="svg_add_circle_plain_plus"
        class="add-circle-plus"
        d="m 437.34045,384.51104 0,2.30097 c 0,0.33556 -0.10786,0.6112 -0.32358,0.82692 -0.21571,0.21571 -0.49135,0.32357 -0.82691,0.32357 l -12.65537,0 0,12.65537 c 0,0.33556 -0.10786,0.6112 -0.32357,0.82691 -0.21572,0.21572 -0.49136,0.32358 -0.82692,0.32358 l -2.30097,0 c -0.33556,0 -0.6112,-0.10786 -0.82692,-0.32358 -0.21571,-0.21571 -0.32357,-0.49135 -0.32357,-0.82691 l 0,-12.65537 -12.65537,0 c -0.33556,0 -0.6112,-0.10786 -0.82691,-0.32357 -0.21571,-0.21572 -0.32357,-0.49136 -0.32357,-0.82692 l 0,-2.30097 c 0,-0.33556 0.10786,-0.6112 0.32357,-0.82692 0.21571,-0.21571 0.49135,-0.32357 0.82691,-0.32357 l 12.65537,0 0,-12.65537 c 0,-0.33556 0.10786,-0.6112 0.32357,-0.82691 0.21572,-0.21571 0.49136,-0.32357 0.82692,-0.32357 l 2.30097,0 c 0.33556,0 0.6112,0.10786 0.82692,0.32357 0.21571,0.21571 0.32357,0.49135 0.32357,0.82691 l 0,12.65537 12.65537,0 c 0.33556,0 0.6112,0.10786 0.82691,0.32357 0.21572,0.21572 0.32358,0.49136 0.32358,0.82692 z" />
    </g>
    <g
      id="svg_add_circle_plain_circle_group"
      style="font-style:normal;font-weight:normal;font-size:60.03469086px;line-height:125%;font-family:Sans;letter-spacing:0px;word-spacing:0px;stroke:none;stroke-width:1px;stroke-linecap:butt;stroke-linejoin:miter;stroke-opacity:1"
      transform="matrix(1.9433211,0,0,1.9433211,-213.49415,-369.0208)">
      <path
        id="svg_add_circle_plain_circle"
        class="add-circle-circle"
        d="m 281.27237,367.30081 q -3.95317,-1.70858 -8.30837,-1.70858 -4.35519,0 -8.34187,1.70858 -3.95318,1.70857 -6.83431,4.5897 -2.84763,2.84763 -4.5562,6.83431 -1.70858,3.95318 -1.70858,8.30837 0,4.3552 1.70858,8.34187 1.70857,3.95318 4.5562,6.83431 2.88113,2.84763 6.83431,4.55621 3.98668,1.70857 8.34187,1.70857 4.3552,0 8.30837,-1.70857 3.98668,-1.70858 6.83431,-4.55621 2.88113,-2.88113 4.58971,-6.83431 1.70857,-3.98667 1.70857,-8.34187 0,-4.35519 -1.70857,-8.30837 -1.70858,-3.98668 -4.58971,-6.83431 -2.84763,-2.88113 -6.83431,-4.5897 z m 13.97013,6.8343 q 3.45065,5.89627 3.45065,12.89808 0,7.00181 -3.45065,12.93158 -3.45065,5.89626 -9.38042,9.34692 -5.89626,3.45065 -12.89808,3.45065 -7.00181,0 -12.93158,-3.45065 -5.89626,-3.45066 -9.34692,-9.34692 -3.45065,-5.92977 -3.45065,-12.93158 0,-7.00181 3.45065,-12.89808 3.45066,-5.92976 9.34692,-9.38042 5.92977,-3.45065 12.93158,-3.45065 7.00182,0 12.89808,3.45065 5.92977,3.45066 9.38042,9.38042 z" />
    </g>
  </g>
</svg>
