<?xml version="1.0" encoding="UTF-8" standalone="no"?>
<!-- Created with Inkscape (http://www.inkscape.org/) -->

<svg
   xmlns:dc="http://purl.org/dc/elements/1.1/"
   xmlns:cc="http://creativecommons.org/ns#"
   xmlns:rdf="http://www.w3.org/1999/02/22-rdf-syntax-ns#"
   xmlns:svg="http://www.w3.org/2000/svg"
   xmlns="http://www.w3.org/2000/svg"
   xmlns:sodipodi="http://sodipodi.sourceforge.net/DTD/sodipodi-0.dtd"
   xmlns:inkscape="http://www.inkscape.org/namespaces/inkscape"
   width="752.21875"
   height="551.88074"
   id="svg3803"
   version="1.1"
   inkscape:version="0.48.4 r9939"
   sodipodi:docname="connected.svg">
  <defs
     id="defs3805" />
  <sodipodi:namedview
     id="base"
     pagecolor="#ffffff"
     bordercolor="#666666"
     borderopacity="1.0"
     inkscape:pageopacity="0.0"
     inkscape:pageshadow="2"
     inkscape:zoom="1.136856"
     inkscape:cx="236.49725"
     inkscape:cy="223.23618"
     inkscape:document-units="px"
     inkscape:current-layer="layer1"
     showgrid="false"
     inkscape:window-width="2020"
     inkscape:window-height="1505"
     inkscape:window-x="1645"
     inkscape:window-y="435"
     inkscape:window-maximized="0"
     fit-margin-top="0"
     fit-margin-left="0"
     fit-margin-right="0"
     fit-margin-bottom="0" />
  <metadata
     id="metadata3808">
    <rdf:RDF>
      <cc:Work
         rdf:about="">
        <dc:format>image/svg+xml</dc:format>
        <dc:type
           rdf:resource="http://purl.org/dc/dcmitype/StillImage" />
        <dc:title></dc:title>
        <dc:subject>
          <rdf:Bag>
            <rdf:li>Connected</rdf:li>
          </rdf:Bag>
        </dc:subject>
        <dc:description>Connected icon</dc:description>
      </cc:Work>
    </rdf:RDF>
  </metadata>
  <g
     inkscape:label="Layer 1"
     inkscape:groupmode="layer"
     id="layer1"
     transform="translate(27.34375,-21.96875)">
    <path
       style="color:#000000;fill:none;stroke:#000000;stroke-width:50;stroke-linecap:round;stroke-linejoin:round;stroke-miterlimit:4;stroke-opacity:1;stroke-dashoffset:11.00000024;marker:none;visibility:visible;display:inline;overflow:visible;enable-background:accumulate"
       d="m 699.875,192.40625 c -1.51796,-1.51796 -3.02508,-3.03296 -4.5625,-4.53125 -1.40301,-1.36791 -2.8349,-2.71451 -4.25,-4.0625 -1.3469,-1.28221 -2.67003,-2.54533 -4.03125,-3.8125 -1.31384,-1.22306 -2.64169,-2.47857 -3.96875,-3.6875 -0.29933,-0.27294 -0.60642,-0.54042 -0.90625,-0.8125 -1.31296,-1.19026 -2.64305,-2.35491 -3.96875,-3.53125 -1.3478,-1.19595 -2.70165,-2.38105 -4.0625,-3.5625 -0.25569,-0.22223 -0.49397,-0.46588 -0.75,-0.6875 -1.38571,-1.19809 -2.78846,-2.37954 -4.1875,-3.5625 -1.5172,-1.28287 -3.02978,-2.54759 -4.5625,-3.8125 -1.25348,-1.03446 -2.51749,-2.0714 -3.78125,-3.09375 -0.46173,-0.37399 -0.91224,-0.75291 -1.375,-1.125 -1.3703,-1.10049 -2.74283,-2.16381 -4.125,-3.25 -3.12654,-2.45702 -6.28241,-4.89833 -9.46875,-7.28125 -3.18634,-2.38292 -6.41141,-4.72373 -9.65625,-7.03125 -3.01113,-2.14132 -6.03332,-4.26844 -9.09375,-6.34375 -0.23703,-0.1608 -0.4815,-0.3084 -0.71875,-0.46875 -13.20818,-8.92327 -26.89734,-17.23095 -40.96875,-24.875 -0.12753,-0.0693 -0.24741,-0.14958 -0.375,-0.21875 -3.39212,-1.83885 -6.81081,-3.61345 -10.25,-5.375 -5.35283,-2.741717 -10.75549,-5.386641 -16.21875,-7.9375 -1.10281,-0.514914 -2.2053,-1.02422 -3.3125,-1.53125 -0.98807,-0.451599 -1.97835,-0.898974 -2.96875,-1.34375 -0.84365,-0.378871 -1.68593,-0.751079 -2.53125,-1.125 -0.72834,-0.322839 -1.45733,-0.649317 -2.1875,-0.96875 -1.65745,-0.725095 -3.33316,-1.448791 -5,-2.15625 -0.2837,-0.120131 -0.55988,-0.255421 -0.84375,-0.375 -1.03226,-0.435846 -2.05795,-0.852199 -3.09375,-1.28125 -0.85422,-0.353025 -1.70672,-0.714447 -2.5625,-1.0625 -0.52802,-0.215232 -1.06483,-0.411535 -1.59375,-0.625 -3.16964,-1.276322 -6.34116,-2.541729 -9.53125,-3.75 -1.05928,-0.402131 -2.12477,-0.792424 -3.1875,-1.1875 -4.79045,-1.776786 -9.60511,-3.469792 -14.4375,-5.09375 C 478.81654,63.256996 449.59796,56.323279 420.0625,52.0625 412.57194,50.981914 405.05539,50.081774 397.53125,49.34375 396.38177,49.231703 395.24552,49.104194 394.09375,49 c -0.55133,-0.05022 -1.10479,-0.07661 -1.65625,-0.125 -1.00592,-0.08763 -2.02362,-0.16838 -3.03125,-0.25 -1.63662,-0.133551 -3.26862,-0.257618 -4.90625,-0.375 -1.98144,-0.142026 -3.98605,-0.287895 -5.96875,-0.40625 -1.9827,-0.118355 -3.95376,-0.217816 -5.9375,-0.3125 -1.98374,-0.09468 -3.98421,-0.178987 -5.96875,-0.25 -1.27433,-0.0456 -2.53791,-0.08916 -3.8125,-0.125 -1.89139,-0.0525 -3.79088,-0.09371 -5.6875,-0.125 -0.64446,-0.01078 -1.29301,-0.02296 -1.9375,-0.03125 -0.15629,-0.002 -0.31242,0.0018 -0.46875,0 -1.98546,-0.02367 -3.95192,-0.03125 -5.9375,-0.03125 -2.79037,0 -5.59556,0.01665 -8.375,0.0625 -1.18501,0.01982 -2.37763,0.03424 -3.5625,0.0625 -0.30146,0.0071 -0.60492,0.02362 -0.90625,0.03125 -1.68204,0.04318 -3.34964,0.09608 -5.03125,0.15625 -1.98454,0.07101 -3.98501,0.155316 -5.96875,0.25 -1.98374,0.09468 -3.9548,0.194145 -5.9375,0.3125 -3.67327,0.219271 -7.33141,0.480732 -11,0.78125 -0.93835,0.07687 -1.87451,0.167818 -2.8125,0.25 -0.5941,0.05167 -1.18775,0.102486 -1.78125,0.15625 -1.08343,0.09884 -2.16712,0.206568 -3.25,0.3125 -7.5675,0.740283 -15.12268,1.631959 -22.65625,2.71875 -29.53546,4.260781 -58.78529,11.194495 -87.3125,20.78125 -0.22763,0.07666 -0.46002,0.14177 -0.6875,0.21875 -1.67284,0.564892 -3.33206,1.13553 -5,1.71875 -0.24889,0.08722 -0.50129,0.162398 -0.75,0.25 -1.64669,0.578739 -3.29577,1.18463 -4.9375,1.78125 -1.02214,0.372307 -2.0435,0.746181 -3.0625,1.125 -1.0631,0.394305 -2.12658,0.785668 -3.1875,1.1875 -0.074,0.0281 -0.14474,0.06561 -0.21875,0.09375 -1.60984,0.610626 -3.20781,1.247039 -4.8125,1.875 -1.50229,0.589225 -3.00489,1.177848 -4.5,1.78125 -0.52908,0.213045 -1.06526,0.410059 -1.59375,0.625 -0.85978,0.350465 -1.70513,0.707362 -2.5625,1.0625 -1.03126,0.426189 -2.0648,0.847815 -3.09375,1.28125 -0.28345,0.11968 -0.56057,0.254809 -0.84375,0.375 -1.66684,0.707459 -3.34255,1.431155 -5,2.15625 -1.57807,0.688904 -3.14645,1.387652 -4.71875,2.09375 -0.6373,0.286807 -1.27039,0.585586 -1.90625,0.875 -1.45444,0.66199 -2.92811,1.324428 -4.375,2 -5.46326,2.550859 -10.86592,5.195783 -16.21875,7.9375 -3.43919,1.76155 -6.85788,3.53615 -10.25,5.375 -0.12759,0.0692 -0.24747,0.14947 -0.375,0.21875 -17.589267,9.55506 -34.557037,20.14991 -50.78125,31.6875 -1.622421,1.15376 -3.235873,2.32731 -4.84375,3.5 -6.293339,4.58999 -12.466844,9.31359 -18.53125,14.1875 -0.41542,0.33387 -0.835679,0.66482 -1.25,1 -0.438891,0.35549 -0.874541,0.70529 -1.3125,1.0625 -0.824641,0.67174 -1.648518,1.35433 -2.46875,2.03125 -1.532718,1.26491 -3.045301,2.52963 -4.5625,3.8125 -1.396419,1.18215 -2.801133,2.36246 -4.1875,3.5625 -0.256494,0.22177 -0.493965,0.46522 -0.75,0.6875 -1.360847,1.18145 -2.714699,2.36655 -4.0625,3.5625 -1.237676,1.0994 -2.458234,2.19859 -3.6875,3.3125 -0.551817,0.49953 -1.106693,0.99803 -1.65625,1.5 -1.162214,1.06158 -2.316704,2.1463 -3.46875,3.21875 -1.3825383,1.28817 -2.7849107,2.56812 -4.15625,3.875 -0.2025061,0.19287 -0.3915695,0.40054 -0.59375,0.59375 -2.7329583,2.61164 -5.45214223,5.26464 -8.125,7.9375"
       id="path3811"
       inkscape:connector-curvature="0"
       sodipodi:nodetypes="cccsccsccssccsssccscsscscscccccccssccccssssccccscccssssccsscccccccccccccsccssscssssccsccsccsccsc" />
    <path
       style="color:#000000;fill:none;stroke:#000000;stroke-width:50;stroke-linecap:round;stroke-linejoin:round;stroke-miterlimit:4;stroke-opacity:1;stroke-dashoffset:11.00000024;marker:none;visibility:visible;display:inline;overflow:visible;enable-background:accumulate"
       d="M 67.942906,262.67668 C 139.81254,190.80704 239.09952,146.35475 348.76889,146.35475 c 109.66937,0 208.95635,44.45229 280.82598,116.32193"
       id="path4325"
       inkscape:connector-curvature="0" />
    <path
       style="color:#000000;fill:none;stroke:#000000;stroke-width:50.00000381;stroke-linecap:round;stroke-linejoin:round;stroke-miterlimit:4;stroke-opacity:1;stroke-dashoffset:11.00000024;marker:none;visibility:visible;display:inline;overflow:visible;enable-background:accumulate"
       d="m 562.42055,329.851 c 0.005,0.005 0.0106,0.0106 0.016,0.016"
       id="path4392"
       inkscape:connector-curvature="0" />
    <path
       style="color:#000000;fill:none;stroke:#000000;stroke-width:50.00000381;stroke-linecap:round;stroke-linejoin:round;stroke-miterlimit:4;stroke-opacity:1;stroke-dashoffset:11.00000024;marker:none;visibility:visible;display:inline;overflow:visible;enable-background:accumulate"
       d="m 135.11723,329.851 c 54.67822,-54.67822 130.21549,-88.49741 213.65165,-88.49741 83.43617,0 158.97344,33.81919 213.65167,88.49741"
       id="path4327"
       inkscape:connector-curvature="0" />
    <path
       style="color:#000000;fill:none;stroke:#000000;stroke-width:50.00000381;stroke-linecap:round;stroke-linejoin:round;stroke-miterlimit:4;stroke-opacity:1;stroke-dashoffset:11.00000024;marker:none;visibility:visible;display:inline;overflow:visible;enable-background:accumulate"
       d="m 209.75536,404.48914 c 35.57667,-35.57666 84.72537,-57.58129 139.01353,-57.58129 54.28815,0 103.43686,22.00463 139.01352,57.58129"
       id="path4329"
       inkscape:connector-curvature="0" />
    <path
       style="color:#000000;fill:none;stroke:#000000;stroke-width:50.00000381;stroke-linecap:round;stroke-linejoin:round;stroke-miterlimit:4;stroke-opacity:1;stroke-dashoffset:11.00000024;marker:none;visibility:visible;display:inline;overflow:visible;enable-background:accumulate"
       d="m 280.66159,475.39537 c 17.43018,-17.43017 41.50974,-28.21096 68.1073,-28.21096 26.59755,0 50.67711,10.78079 68.10729,28.21096"
       id="path4331"
       inkscape:connector-curvature="0" />
    <path
       transform="matrix(0.07491854,0,0,0.07491854,306.95549,484.39821)"
       style="color:#000000;fill:#000000;fill-opacity:1;stroke:none;stroke-width:474.74240112;marker:none;visibility:visible;display:inline;overflow:visible;enable-background:accumulate"
       d="m 963.18265,788.91632 c 0,223.71098 -181.35355,405.06448 -405.06449,405.06448 -223.71093,0 -405.06448,-181.3535 -405.06448,-405.06448 0,-223.71094 181.35355,-405.06448 405.06448,-405.06448 223.71094,0 405.06449,181.35354 405.06449,405.06448 z"
       id="path4333"
       inkscape:connector-curvature="0" />
  </g>
</svg>
