<?xml version="1.0" encoding="UTF-8" standalone="no"?>
<!-- Created with Inkscape (http://www.inkscape.org/) -->

<svg
   xmlns:dc="http://purl.org/dc/elements/1.1/"
   xmlns:cc="http://creativecommons.org/ns#"
   xmlns:rdf="http://www.w3.org/1999/02/22-rdf-syntax-ns#"
   xmlns:svg="http://www.w3.org/2000/svg"
   xmlns="http://www.w3.org/2000/svg"
   xmlns:sodipodi="http://sodipodi.sourceforge.net/DTD/sodipodi-0.dtd"
   xmlns:inkscape="http://www.inkscape.org/namespaces/inkscape"
   width="752.24658"
   height="561.86804"
   id="svg3803"
   version="1.1"
   inkscape:version="0.48.4 r9939"
   sodipodi:docname="disconnected.svg">
  <title
     id="title4598">Disconnected</title>
  <defs
     id="defs3805" />
  <sodipodi:namedview
     id="base"
     pagecolor="#ffffff"
     bordercolor="#666666"
     borderopacity="1.0"
     inkscape:pageopacity="0.0"
     inkscape:pageshadow="2"
     inkscape:zoom="1.3055631"
     inkscape:cx="182.26342"
     inkscape:cy="62.292294"
     inkscape:document-units="px"
     inkscape:current-layer="layer1"
     showgrid="false"
     inkscape:window-width="2020"
     inkscape:window-height="1505"
     inkscape:window-x="1399"
     inkscape:window-y="340"
     inkscape:window-maximized="0"
     fit-margin-top="0"
     fit-margin-left="0"
     fit-margin-right="0"
     fit-margin-bottom="0" />
  <metadata
     id="metadata3808">
    <rdf:RDF>
      <cc:Work
         rdf:about="">
        <dc:format>image/svg+xml</dc:format>
        <dc:type
           rdf:resource="http://purl.org/dc/dcmitype/StillImage" />
        <cc:license
           rdf:resource="" />
        <dc:title>Disconnected</dc:title>
        <dc:date>18 July 2015</dc:date>
        <dc:creator>
          <cc:Agent>
            <dc:title>James Jenner</dc:title>
          </cc:Agent>
        </dc:creator>
        <dc:rights>
          <cc:Agent>
            <dc:title>Creative Commons Attribution 4.0 International License</dc:title>
          </cc:Agent>
        </dc:rights>
        <dc:subject>
          <rdf:Bag>
            <rdf:li>Disconnected</rdf:li>
          </rdf:Bag>
        </dc:subject>
        <dc:description>Disconnected or no signal icon</dc:description>
      </cc:Work>
    </rdf:RDF>
  </metadata>
  <g
     inkscape:groupmode="layer"
     id="layer2"
     inkscape:label="Layer"
     style="display:inline"
     transform="translate(27.357652,-11.981482)">
    <g
       transform="scale(1.0455811,0.95640598)"
       style="font-size:1005.4519043px;font-style:normal;font-variant:normal;font-weight:bold;font-stretch:normal;text-align:center;line-height:0%;letter-spacing:0px;word-spacing:0px;writing-mode:lr-tb;text-anchor:middle;fill:#000000;fill-opacity:1;stroke:none;font-family:Bitstream Charter;-inkscape-font-specification:Bitstream Charter Bold"
       id="text4503">
      <path
         d="m 406.79537,142.23091 c 3.01635,-21.11447 4.02181,-37.20173 4.02181,-47.256243 0,-53.288897 -29.15816,-82.447056 -76.41435,-82.447056 -47.25619,0 -76.41434,28.152705 -76.41434,79.430701 0,10.054508 2.0109,28.152678 5.02726,52.283498 l 45.24533,356.93543 53.28895,0 45.24534,-358.94633"
         id="path4508"
         inkscape:connector-curvature="0"
         sodipodi:nodetypes="cssscccc" />
    </g>
  </g>
  <g
     inkscape:label="Layer 1"
     inkscape:groupmode="layer"
     id="layer1"
     style="display:inline"
     transform="translate(27.357652,-11.981482)">
    <path
       style="font-size:medium;font-style:normal;font-variant:normal;font-weight:normal;font-stretch:normal;text-indent:0;text-align:start;text-decoration:none;line-height:normal;letter-spacing:normal;word-spacing:normal;text-transform:none;direction:ltr;block-progression:tb;writing-mode:lr-tb;text-anchor:start;baseline-shift:baseline;color:#000000;fill:#000000;fill-opacity:1;stroke:none;stroke-width:50;marker:none;visibility:visible;display:inline;overflow:visible;enable-background:accumulate;font-family:Sans;-inkscape-font-specification:Sans"
       d="m 448.84375,82.75 c 17.02536,3.679321 33.91403,8.196926 50.53125,13.78125 4.60272,1.546774 9.17202,3.169304 13.6875,4.84375 0.009,0.003 0.0222,-0.003 0.0312,0 1.12518,0.4182 2.13117,0.79517 3,1.125 a 25.0025,25.0025 0 0 0 0.0312,0 c 2.9159,1.10442 5.9106,2.3059 9.03125,3.5625 1.04018,0.4198 1.53624,0.60852 1.5,0.59375 a 25.0025,25.0025 0 0 0 0.0312,0 c 0.62818,0.25549 1.41176,0.589 2.40625,1 1.14378,0.47378 2.1163,0.87202 2.9375,1.21875 -0.55976,-0.2358 -0.21555,-0.0797 0.78125,0.34375 0.0125,0.005 0.0189,0.026 0.0312,0.0312 1.55747,0.66123 3.14647,1.34342 4.71875,2.03125 0.59745,0.26137 1.30682,0.55744 2.09375,0.90625 a 25.0025,25.0025 0 0 0 0,0.0312 c 0.85087,0.37638 1.6533,0.72436 2.40625,1.0625 0.95651,0.42956 1.89085,0.86001 2.8125,1.28125 l 0,-0.0312 c 1.05705,0.48406 2.11481,0.98249 3.15625,1.46875 5.18557,2.4212 10.29069,4.92707 15.375,7.53125 3.35872,1.72034 6.62046,3.39724 9.75,5.09375 -1.22942,-0.6665 -1.12571,-0.57975 0.34375,0.21875 13.37122,7.26369 26.3733,15.15791 38.90625,23.625 0.9416,0.6364 1.17761,0.76999 0.6875,0.4375 2.8204,1.91254 5.67997,3.93694 8.625,6.03125 3.11321,2.21391 6.19209,4.44737 9.1875,6.6875 2.96827,2.21983 5.97389,4.52815 9,6.90625 1.47181,1.15664 2.76056,2.17364 3.90625,3.09375 l 0,-0.0312 c 0.17842,0.14346 0.58209,0.52745 1.28125,1.09375 a 25.0025,25.0025 0 0 0 0.0312,0 c 1.17459,0.95022 2.37815,1.9343 3.59375,2.9375 1.45075,1.19726 2.86497,2.40104 4.3125,3.625 1.41719,1.19831 2.75096,2.32236 3.96875,3.375 0.006,0.005 0.0258,-0.005 0.0312,0 -0.72982,-0.63021 -0.56226,-0.42996 0.6875,0.65625 a 25.0025,25.0025 0 0 0 0.0312,0 c 1.30955,1.13692 2.57988,2.25352 3.84375,3.375 1.39544,1.23823 2.6562,2.35282 3.75,3.34375 0.0208,0.0189 0.0113,0.0131 0.0312,0.0312 0.51273,0.46458 0.8267,0.73446 0.84375,0.75 1.09438,0.99696 2.37087,2.21832 3.78125,3.53125 1.21042,1.12679 2.44896,2.2957 3.8125,3.59375 1.49282,1.42203 2.87519,2.7174 4.0625,3.875 1.3533,1.31886 2.76395,2.76395 4.3125,4.3125 a 25.013902,25.013902 0 1 0 35.375,-35.375 c -1.48737,-1.48737 -3.09096,-3.07228 -4.8125,-4.75 -1.61871,-1.57822 -3.10012,-2.97605 -4.4375,-4.25 -1.33026,-1.26637 -2.73798,-2.6237 -4.25,-4.03125 -1.2173,-1.13319 -2.59651,-2.42285 -4.15625,-3.84375 -0.58095,-0.52973 -0.89024,-0.80087 -0.9375,-0.84375 a 25.0025,25.0025 0 0 0 -0.0312,-0.0312 c -1.52533,-1.38278 -2.91255,-2.58392 -4.15625,-3.6875 -1.42582,-1.26518 -2.84361,-2.52893 -4.25,-3.75 0.0167,0.0145 -0.0471,-0.0136 -0.0312,0 0.70893,0.61449 0.52985,0.38909 -0.75,-0.71875 a 25.0025,25.0025 0 0 0 -0.0312,0 c -1.54905,-1.33931 -3.00061,-2.58788 -4.375,-3.75 -1.58687,-1.34178 -3.19781,-2.66744 -4.8125,-4 -1.28528,-1.0607 -2.5912,-2.16074 -3.9375,-3.25 -0.003,-0.002 -0.0282,0.002 -0.0312,0 -0.22781,-0.18492 -0.70022,-0.56343 -1.4375,-1.15625 a 25.0025,25.0025 0 0 0 0,-0.0312 c -1.59491,-1.28087 -3.05122,-2.39051 -4.34375,-3.40625 -3.22697,-2.53594 -6.53309,-5.11024 -9.9375,-7.65625 -3.37727,-2.52571 -6.74853,-4.97387 -10.125,-7.375 -3.07723,-2.18833 -6.26204,-4.41817 -9.5625,-6.65625 -0.96417,-0.65409 -1.2171,-0.8157 -0.75,-0.5 -13.88341,-9.37945 -28.25965,-18.100586 -43.03125,-26.125 1.2144,0.659905 1.07835,0.58609 -0.40625,-0.21875 -3.6547,-1.981193 -7.23034,-3.853485 -10.75,-5.65625 -5.62135,-2.879254 -11.32155,-5.663234 -17.0625,-8.34375 -1.16418,-0.543568 -2.3114,-1.063753 -3.46875,-1.59375 a 25.0025,25.0025 0 0 0 0,-0.03125 c -1.05449,-0.481958 -2.10071,-0.946254 -3.125,-1.40625 -0.93435,-0.419602 -1.81648,-0.816036 -2.65625,-1.1875 l 0,0.03125 c -0.66975,-0.296869 -1.41836,-0.653755 -2.28125,-1.03125 -1.73004,-0.756851 -3.48589,-1.501255 -5.25,-2.25 a 25.0025,25.0025 0 0 0 -0.0312,-0.03125 c 0.55775,0.236175 0.2797,0.111413 -0.875,-0.375 -1.24332,-0.52496 -2.32218,-0.959428 -3.25,-1.34375 -0.70694,-0.292159 -1.61841,-0.689882 -2.6875,-1.125 -0.0176,-0.0072 -0.014,0.007 -0.0312,0 -1.05798,-0.430486 -1.63887,-0.649237 -1.65625,-0.65625 -3.20994,-1.29255 -6.54579,-2.628822 -10,-3.9375 -0.0102,-0.0039 -0.0212,0.0039 -0.0312,0 -1.22961,-0.466545 -2.33289,-0.885826 -3.3125,-1.25 a 25.0025,25.0025 0 0 0 -0.0312,0 C 525.41246,52.624608 520.36522,50.854253 515.3125,49.15625 487.28768,39.738326 458.60066,32.839841 429.625,28.3125 c 1.34297,1.513183 2.69717,3.031196 3.90625,4.65625 1.66358,2.235921 3.22099,4.585744 4.625,7.03125 1.40401,2.445506 2.67514,4.972455 3.8125,7.625 1.13736,2.652545 2.13637,5.424214 3,8.28125 0.86363,2.857036 1.57342,5.816018 2.15625,8.875 0.58283,3.058982 1.01755,6.21037 1.3125,9.46875 0.24917,2.752575 0.36718,5.606804 0.40625,8.5 z"
       id="path4539"
       inkscape:connector-curvature="0" />
    <path
       style="font-size:medium;font-style:normal;font-variant:normal;font-weight:normal;font-stretch:normal;text-indent:0;text-align:start;text-decoration:none;line-height:normal;letter-spacing:normal;word-spacing:normal;text-transform:none;direction:ltr;block-progression:tb;writing-mode:lr-tb;text-anchor:start;baseline-shift:baseline;color:#000000;fill:#000000;fill-opacity:1;stroke:none;stroke-width:50;marker:none;visibility:visible;display:inline;overflow:visible;enable-background:accumulate;font-family:Sans;-inkscape-font-specification:Sans"
       d="m 266.84375,28.5 c -28.6074,4.531203 -56.94593,11.354518 -84.625,20.65625 0.59208,-0.199397 0.35133,-0.14337 -0.71875,0.21875 -1.7605,0.594493 -3.50194,1.201264 -5.25,1.8125 a 25.0025,25.0025 0 0 0 -0.0312,0 c 0.48004,-0.168223 0.18055,-0.07675 -0.75,0.25 -0.035,0.0123 0.006,-0.01304 -0.0312,0 -1.85887,0.653611 -3.5786,1.301666 -5.15625,1.875 a 25.0025,25.0025 0 0 0 -0.0312,0 c -1.03823,0.378168 -2.09987,0.783271 -3.1875,1.1875 -0.009,0.0035 -0.022,-0.0035 -0.0312,0 -1.01641,0.376929 -2.11452,0.796256 -3.3125,1.25 a 25.0025,25.0025 0 0 0 -0.0312,0 c -2.03344,0.772157 -2.0966,0.807743 -0.21875,0.09375 -1.86616,0.707852 -3.55076,1.377162 -5.0625,1.96875 -1.49581,0.586685 -3.06539,1.207732 -4.71875,1.875 -0.0541,0.02179 -0.6,0.226663 -1.65625,0.65625 a 25.0025,25.0025 0 0 0 -0.0312,0 c -1.04933,0.42773 -1.93342,0.812646 -2.6875,1.125 -0.96103,0.397164 -2.04683,0.836925 -3.25,1.34375 -1.11656,0.47144 -1.42691,0.627237 -0.90625,0.40625 -1.75524,0.74498 -3.49713,1.496929 -5.21875,2.25 -0.009,0.0038 -0.0225,-0.0038 -0.0312,0 -1.68312,0.734919 -3.32874,1.465029 -4.9375,2.1875 -0.9123,0.410566 -1.57413,0.743664 -2,0.9375 -1.38269,0.629333 -2.92716,1.315599 -4.59375,2.09375 -5.74095,2.680516 -11.44115,5.464496 -17.0625,8.34375 -3.51966,1.802765 -7.0953,3.675057 -10.75,5.65625 -1.480807,0.803134 -1.621692,0.879032 -0.40625,0.21875 -18.474806,10.036114 -36.301383,21.16184 -53.34375,33.28125 -1.767915,1.25723 -3.437096,2.50203 -5.0625,3.6875 -6.602025,4.81513 -13.094595,9.75215 -19.46875,14.875 -0.28605,0.2299 -0.727415,0.58917 -1.3125,1.0625 a 25.0025,25.0025 0 0 0 -0.03125,0 c -0.379047,0.30702 -0.817291,0.69577 -1.34375,1.125 -0.0073,0.006 -0.02396,-0.006 -0.03125,0 -0.925001,0.75367 -1.772817,1.47329 -2.5625,2.125 -1.61467,1.33254 -3.225615,2.65821 -4.8125,4 -1.343842,1.13764 -2.81084,2.39638 -4.375,3.75 -0.00646,0.006 -0.024787,-0.006 -0.03125,0 l 0,0.0312 c -1.1875531,1.02998 -1.5062644,1.34406 -0.75,0.6875 -1.4121204,1.22596 -2.8495155,2.47957 -4.28125,3.75 -1.3220628,1.17436 -2.60805826,2.3207 -3.875,3.46875 -0.5050626,0.45721 -1.0987742,0.96766 -1.75,1.5625 -1.33651,1.22078 -2.5296538,2.35533 -3.625,3.375 a 25.0025,25.0025 0 0 0 0,0.0312 c -1.2564799,1.17072 -2.7431352,2.50734 -4.375,4.0625 -1.065105,1.01442 -1.263718,1.23538 -0.625,0.625 -2.858607,2.73171 -5.712479,5.49373 -8.53125,8.3125 a 25.013902,25.013902 0 1 0 35.375,35.375 c 2.526944,-2.52695 5.11144,-5.07093 7.71875,-7.5625 1.043079,-0.9968 1.222593,-1.19118 0.5625,-0.5625 1.110814,-1.0586 2.428903,-2.28188 3.9375,-3.6875 l 0,0.0312 c 1.208746,-1.12523 2.324582,-2.16012 3.3125,-3.0625 0.447888,-0.4091 0.963929,-0.89565 1.5625,-1.4375 1.19159,-1.07977 2.346711,-2.13181 3.5,-3.15625 1.263868,-1.12147 2.534176,-2.23806 3.84375,-3.375 1.301156,-1.12961 1.534665,-1.36171 0.71875,-0.65625 a 25.0025,25.0025 0 0 0 0.03125,0 c 1.201324,-1.03987 2.525304,-2.15304 3.96875,-3.375 1.447513,-1.22395 2.861734,-2.42772 4.3125,-3.625 0.845047,-0.6974 1.627173,-1.35379 2.34375,-1.9375 a 25.0025,25.0025 0 0 0 0.03125,0 c 0.334901,-0.27315 0.735188,-0.60841 1.21875,-1 0.0039,-0.003 0.02722,0.003 0.03125,0 0.244571,-0.1976 0.620291,-0.50675 1.15625,-0.9375 5.754657,-4.62497 11.609097,-9.13515 17.59375,-13.5 1.59035,-1.15991 3.148073,-2.26221 4.625,-3.3125 15.406059,-10.95577 31.51502,-21.01974 48.21875,-30.09375 1.4705,-0.79884 1.56938,-0.88348 0.34375,-0.21875 3.12954,-1.69651 6.39128,-3.37341 9.75,-5.09375 5.08431,-2.60418 10.18943,-5.11005 15.375,-7.53125 1.22719,-0.57299 2.63006,-1.2116 4.15625,-1.90625 0.84585,-0.38499 1.4502,-0.64945 1.8125,-0.8125 1.52732,-0.6859 3.0051,-1.36105 4.46875,-2 a 25.0025,25.0025 0 0 0 0.0312,0 c 1.58486,-0.69334 3.18043,-1.39633 4.75,-2.0625 1.08702,-0.46137 1.33091,-0.57583 0.78125,-0.34375 0.85473,-0.36004 1.83601,-0.76354 2.9375,-1.21875 0.95012,-0.39356 1.74053,-0.7284 2.40625,-1 1e-5,-10e-6 0.0309,1.2e-4 0.0312,0 0.0184,-0.007 0.51376,-0.19662 1.5,-0.59375 1.33686,-0.53954 2.77248,-1.09573 4.28125,-1.6875 1.69764,-0.66433 3.20898,-1.26785 4.5625,-1.78125 1.78137,-0.67731 1.43066,-0.56404 0.1875,-0.0937 0.008,-0.003 0.0231,0.003 0.0312,0 0.90739,-0.34349 1.90706,-0.71963 3,-1.125 a 25.0025,25.0025 0 0 0 0.0312,0 c 0.93166,-0.34635 1.88787,-0.70291 2.875,-1.0625 0.01,-0.004 0.0213,0.004 0.0312,0 1.68582,-0.612704 3.24158,-1.190307 4.65625,-1.6875 a 25.0025,25.0025 0 0 0 0.0312,0 c -0.50269,0.177061 -0.21336,0.06484 0.6875,-0.25 0.009,-0.0033 0.022,0.0033 0.0312,0 1.5783,-0.55177 3.1429,-1.092861 4.71875,-1.625 -0.61512,0.20816 -0.39109,0.133967 0.65625,-0.21875 16.61931,-5.585029 33.52162,-10.101033 50.5625,-13.78125 -0.009,-0.465262 -0.0937,-1.126275 -0.0937,-1.5625 0,-3.324846 0.1738,-6.551357 0.46875,-9.6875 0.29495,-3.136143 0.72967,-6.180106 1.3125,-9.125 0.58283,-2.944894 1.29262,-5.780152 2.15625,-8.53125 0.86363,-2.751098 1.86264,-5.413995 3,-7.96875 1.13736,-2.554755 2.40849,-5.019135 3.8125,-7.375 1.40401,-2.355865 2.96142,-4.595571 4.625,-6.75 0.87906,-1.138436 1.89372,-2.168353 2.84375,-3.25 z"
       id="path4537"
       inkscape:connector-curvature="0" />
    <path
       style="font-size:medium;font-style:normal;font-variant:normal;font-weight:normal;font-stretch:normal;text-indent:0;text-align:start;text-decoration:none;line-height:normal;letter-spacing:normal;word-spacing:normal;text-transform:none;direction:ltr;block-progression:tb;writing-mode:lr-tb;text-anchor:start;baseline-shift:baseline;color:#000000;fill:#000000;fill-opacity:1;stroke:none;stroke-width:50;marker:none;visibility:visible;display:inline;overflow:visible;enable-background:accumulate;font-family:Sans;-inkscape-font-specification:Sans"
       d="m 435.9375,181.6875 c 67.7697,16.25225 128.26703,50.95452 175.96875,98.65625 A 25.002856,25.002856 0 1 0 647.28125,245 C 592.34604,190.06479 522.18364,150.31175 443.8125,132.25 c -0.0685,0.38528 -0.11739,0.70518 -0.1875,1.09375 l -7.6875,48.34375 z"
       id="path4570"
       inkscape:connector-curvature="0" />
    <path
       style="font-size:medium;font-style:normal;font-variant:normal;font-weight:normal;font-stretch:normal;text-indent:0;text-align:start;text-decoration:none;line-height:normal;letter-spacing:normal;word-spacing:normal;text-transform:none;direction:ltr;block-progression:tb;writing-mode:lr-tb;text-anchor:start;baseline-shift:baseline;color:#000000;fill:#000000;fill-opacity:1;stroke:none;stroke-width:50;marker:none;visibility:visible;display:inline;overflow:visible;enable-background:accumulate;font-family:Sans;-inkscape-font-specification:Sans"
       d="M 254.71875,132.03125 C 175.94756,149.98671 105.41152,189.83847 50.25,245 a 25.002856,25.002856 0 1 0 35.375,35.34375 c 47.9281,-47.9281 108.79879,-82.72258 176.96875,-98.875 l -7.375,-46.03125 c -0.20653,-1.30813 -0.30085,-2.1326 -0.5,-3.40625 z"
       id="path4568"
       inkscape:connector-curvature="0" />
    <path
       inkscape:connector-curvature="0"
       style="color:#000000;fill:none;stroke:#000000;stroke-width:50.00000381;stroke-linecap:round;stroke-linejoin:round;stroke-miterlimit:4;stroke-opacity:1;stroke-dashoffset:11.00000024;marker:none;visibility:visible;display:inline;overflow:visible;enable-background:accumulate"
       d="m 562.42055,329.851 c 0.005,0.005 0.0106,0.0106 0.016,0.016"
       id="path4392" />
    <path
       style="font-size:medium;font-style:normal;font-variant:normal;font-weight:normal;font-stretch:normal;text-indent:0;text-align:start;text-decoration:none;line-height:normal;letter-spacing:normal;word-spacing:normal;text-transform:none;direction:ltr;block-progression:tb;writing-mode:lr-tb;text-anchor:start;baseline-shift:baseline;color:#000000;fill:#000000;fill-opacity:1;stroke:none;stroke-width:50.00000381;marker:none;visibility:visible;display:inline;overflow:visible;enable-background:accumulate;font-family:Sans;-inkscape-font-specification:Sans"
       d="m 269.71875,226 c -58.56061,14.55824 -110.97863,44.88488 -152.28125,86.1875 a 25.002502,25.002502 0 1 0 35.34375,35.34375 c 34.07747,-34.07747 76.88936,-59.31317 124.875,-72 L 269.71875,226 z m 159.125,0.25 -7.90625,49.59375 c 47.54678,12.77674 89.98626,37.86126 123.8125,71.6875 A 25.002502,25.002502 0 1 0 580.09375,312.1875 C 539.02748,271.12124 486.9899,240.90435 428.84375,226.25 z"
       id="path4327"
       inkscape:connector-curvature="0" />
    <path
       style="font-size:medium;font-style:normal;font-variant:normal;font-weight:normal;font-stretch:normal;text-indent:0;text-align:start;text-decoration:none;line-height:normal;letter-spacing:normal;word-spacing:normal;text-transform:none;direction:ltr;block-progression:tb;writing-mode:lr-tb;text-anchor:start;baseline-shift:baseline;color:#000000;fill:#000000;fill-opacity:1;stroke:none;stroke-width:50.00000381;marker:none;visibility:visible;display:inline;overflow:visible;enable-background:accumulate;font-family:Sans;-inkscape-font-specification:Sans"
       d="m 286.5,330.8125 c -36.15088,10.57771 -68.53759,30.1001 -94.4375,56 a 25.002856,25.002856 0 1 0 35.375,35.34375 c 18.64391,-18.6439 41.48171,-32.99473 67.03125,-41.5 L 286.5,330.8125 z m 125.625,0.3125 -7.9375,49.90625 c 25.09645,8.5485 47.53016,22.74891 65.90625,41.125 a 25.002856,25.002856 0 1 0 35.375,-35.34375 C 479.82671,361.17046 447.83228,341.77371 412.125,331.125 z"
       id="path4329"
       inkscape:connector-curvature="0" />
    <path
       style="font-size:medium;font-style:normal;font-variant:normal;font-weight:normal;font-stretch:normal;text-indent:0;text-align:start;text-decoration:none;line-height:normal;letter-spacing:normal;word-spacing:normal;text-transform:none;direction:ltr;block-progression:tb;writing-mode:lr-tb;text-anchor:start;baseline-shift:baseline;color:#000000;fill:#000000;fill-opacity:1;stroke:none;stroke-width:50.00000381;marker:none;visibility:visible;display:inline;overflow:visible;enable-background:accumulate;font-family:Sans;-inkscape-font-specification:Sans"
       d="m 302.59375,431.3125 c -14.94095,6.15392 -28.41209,15.19335 -39.625,26.40625 a 25.002856,25.002856 0 1 0 35.375,35.34375 c 3.78555,-3.78555 7.99974,-7.11258 12.53125,-9.96875 l -8.28125,-51.78125 z m 93.53125,0.46875 -8.28125,52.03125 c 4.0866,2.68975 7.88218,5.78843 11.34375,9.25 a 25.002856,25.002856 0 1 0 35.375,-35.34375 c -10.9238,-10.92379 -23.96427,-19.79788 -38.4375,-25.9375 z"
       id="path4331"
       inkscape:connector-curvature="0" />
    <path
       inkscape:connector-curvature="0"
       style="color:#000000;fill:#000000;fill-opacity:1;stroke:none;stroke-width:474.74240112;marker:none;visibility:visible;display:inline;overflow:visible;enable-background:accumulate"
       d="m 379.11573,543.50267 c 0,16.7601 -13.58675,30.34684 -30.34684,30.34684 -16.7601,0 -30.34684,-13.58674 -30.34684,-30.34684 0,-16.7601 13.58674,-30.34684 30.34684,-30.34684 16.76009,0 30.34684,13.58674 30.34684,30.34684 z"
       id="path4333" />
  </g>
</svg>
